<mxfile host="app.diagrams.net" modified="2023-05-17T23:19:21.811Z" agent="Mozilla/5.0 (Windows NT 10.0; Win64; x64) AppleWebKit/537.36 (KHTML, like Gecko) Chrome/113.0.0.0 Safari/537.36" etag="dqrbXIcvU0Ixnz0N5Hwu" version="21.3.2" type="github">
  <diagram name="Page-1" id="58cdce13-f638-feb5-8d6f-7d28b1aa9fa0">
    <mxGraphModel dx="1400" dy="775" grid="1" gridSize="10" guides="1" tooltips="1" connect="1" arrows="1" fold="1" page="1" pageScale="1" pageWidth="1100" pageHeight="850" background="none" math="0" shadow="0">
      <root>
        <mxCell id="0" />
        <mxCell id="1" parent="0" />
        <mxCell id="1wq-5R0mncPX6H5CA1t6-1" value="" style="shape=ellipse;html=1;fillColor=strokeColor;fontSize=18;fontColor=#ffffff;" vertex="1" parent="1">
          <mxGeometry x="40" y="320" width="40" height="40" as="geometry" />
        </mxCell>
        <mxCell id="1wq-5R0mncPX6H5CA1t6-2" value="START" style="shape=rect;rounded=1;html=1;whiteSpace=wrap;align=center;" vertex="1" parent="1">
          <mxGeometry x="120" y="320" width="100" height="40" as="geometry" />
        </mxCell>
        <mxCell id="1wq-5R0mncPX6H5CA1t6-3" value="start" style="edgeStyle=none;html=1;endArrow=open;endSize=12;strokeWidth=3;verticalAlign=bottom;rounded=0;exitX=1;exitY=0.5;exitDx=0;exitDy=0;" edge="1" parent="1" source="1wq-5R0mncPX6H5CA1t6-1">
          <mxGeometry width="160" relative="1" as="geometry">
            <mxPoint x="320" y="350" as="sourcePoint" />
            <mxPoint x="120" y="340" as="targetPoint" />
          </mxGeometry>
        </mxCell>
        <mxCell id="1wq-5R0mncPX6H5CA1t6-14" value="" style="edgeStyle=orthogonalEdgeStyle;rounded=0;orthogonalLoop=1;jettySize=auto;html=1;" edge="1" parent="1" source="1wq-5R0mncPX6H5CA1t6-8" target="1wq-5R0mncPX6H5CA1t6-13">
          <mxGeometry relative="1" as="geometry" />
        </mxCell>
        <mxCell id="1wq-5R0mncPX6H5CA1t6-21" value="" style="edgeStyle=orthogonalEdgeStyle;rounded=0;orthogonalLoop=1;jettySize=auto;html=1;" edge="1" parent="1" source="1wq-5R0mncPX6H5CA1t6-8" target="1wq-5R0mncPX6H5CA1t6-17">
          <mxGeometry relative="1" as="geometry" />
        </mxCell>
        <mxCell id="1wq-5R0mncPX6H5CA1t6-8" value="" style="shape=rhombus;html=1;labelPosition=right;align=left;verticalAlign=middle" vertex="1" parent="1">
          <mxGeometry x="260" y="320" width="40" height="40" as="geometry" />
        </mxCell>
        <mxCell id="1wq-5R0mncPX6H5CA1t6-12" value="" style="edgeStyle=none;html=1;endArrow=open;endSize=12;strokeWidth=3;verticalAlign=bottom;rounded=0;entryX=0;entryY=0.5;entryDx=0;entryDy=0;" edge="1" parent="1" target="1wq-5R0mncPX6H5CA1t6-8">
          <mxGeometry width="160" relative="1" as="geometry">
            <mxPoint x="220" y="339.66" as="sourcePoint" />
            <mxPoint x="380" y="339.66" as="targetPoint" />
          </mxGeometry>
        </mxCell>
        <mxCell id="1wq-5R0mncPX6H5CA1t6-24" value="" style="edgeStyle=orthogonalEdgeStyle;rounded=0;orthogonalLoop=1;jettySize=auto;html=1;" edge="1" parent="1" source="1wq-5R0mncPX6H5CA1t6-13" target="1wq-5R0mncPX6H5CA1t6-23">
          <mxGeometry relative="1" as="geometry" />
        </mxCell>
        <mxCell id="1wq-5R0mncPX6H5CA1t6-13" value="LOGIN_START" style="shape=rect;rounded=1;html=1;whiteSpace=wrap;align=center;" vertex="1" parent="1">
          <mxGeometry x="370" y="320" width="100" height="40" as="geometry" />
        </mxCell>
        <mxCell id="1wq-5R0mncPX6H5CA1t6-15" value="&lt;font style=&quot;font-size: 8px;&quot;&gt;HAVE_ACCOUNT&lt;/font&gt;" style="text;html=1;strokeColor=none;fillColor=none;align=center;verticalAlign=middle;whiteSpace=wrap;rounded=0;" vertex="1" parent="1">
          <mxGeometry x="300" y="310" width="60" height="30" as="geometry" />
        </mxCell>
        <mxCell id="1wq-5R0mncPX6H5CA1t6-45" value="" style="edgeStyle=orthogonalEdgeStyle;rounded=0;orthogonalLoop=1;jettySize=auto;html=1;" edge="1" parent="1" source="1wq-5R0mncPX6H5CA1t6-17" target="1wq-5R0mncPX6H5CA1t6-44">
          <mxGeometry relative="1" as="geometry" />
        </mxCell>
        <mxCell id="1wq-5R0mncPX6H5CA1t6-17" value="REGISTER_START" style="shape=rect;rounded=1;html=1;whiteSpace=wrap;align=center;" vertex="1" parent="1">
          <mxGeometry x="220" y="425" width="120" height="40" as="geometry" />
        </mxCell>
        <mxCell id="1wq-5R0mncPX6H5CA1t6-22" value="&lt;font style=&quot;font-size: 8px;&quot;&gt;NO_ACCOUNT&lt;/font&gt;" style="text;html=1;strokeColor=none;fillColor=none;align=center;verticalAlign=middle;whiteSpace=wrap;rounded=0;" vertex="1" parent="1">
          <mxGeometry x="220" y="380" width="60" height="30" as="geometry" />
        </mxCell>
        <mxCell id="1wq-5R0mncPX6H5CA1t6-26" value="" style="edgeStyle=orthogonalEdgeStyle;rounded=0;orthogonalLoop=1;jettySize=auto;html=1;" edge="1" parent="1" source="1wq-5R0mncPX6H5CA1t6-23" target="1wq-5R0mncPX6H5CA1t6-25">
          <mxGeometry relative="1" as="geometry" />
        </mxCell>
        <mxCell id="1wq-5R0mncPX6H5CA1t6-23" value="validate credentials" style="shape=rect;html=1;whiteSpace=wrap;align=center;" vertex="1" parent="1">
          <mxGeometry x="500" y="320" width="140" height="40" as="geometry" />
        </mxCell>
        <mxCell id="1wq-5R0mncPX6H5CA1t6-41" value="" style="edgeStyle=orthogonalEdgeStyle;rounded=0;orthogonalLoop=1;jettySize=auto;html=1;" edge="1" parent="1" source="1wq-5R0mncPX6H5CA1t6-25">
          <mxGeometry relative="1" as="geometry">
            <mxPoint x="760" y="340" as="targetPoint" />
          </mxGeometry>
        </mxCell>
        <mxCell id="1wq-5R0mncPX6H5CA1t6-25" value="" style="shape=rhombus;html=1;labelPosition=right;align=left;verticalAlign=middle" vertex="1" parent="1">
          <mxGeometry x="680" y="320" width="40" height="40" as="geometry" />
        </mxCell>
        <mxCell id="1wq-5R0mncPX6H5CA1t6-27" value="&lt;font style=&quot;font-size: 8px;&quot;&gt;&lt;br&gt;&lt;/font&gt;" style="text;html=1;strokeColor=none;fillColor=none;align=center;verticalAlign=middle;whiteSpace=wrap;rounded=0;" vertex="1" parent="1">
          <mxGeometry x="630" y="300" width="60" height="30" as="geometry" />
        </mxCell>
        <mxCell id="1wq-5R0mncPX6H5CA1t6-36" value="" style="endArrow=none;html=1;rounded=0;exitX=0.5;exitY=0;exitDx=0;exitDy=0;" edge="1" parent="1" source="1wq-5R0mncPX6H5CA1t6-25">
          <mxGeometry width="50" height="50" relative="1" as="geometry">
            <mxPoint x="540" y="420" as="sourcePoint" />
            <mxPoint x="700" y="240" as="targetPoint" />
          </mxGeometry>
        </mxCell>
        <mxCell id="1wq-5R0mncPX6H5CA1t6-37" value="" style="endArrow=none;html=1;rounded=0;" edge="1" parent="1">
          <mxGeometry width="50" height="50" relative="1" as="geometry">
            <mxPoint x="280" y="240" as="sourcePoint" />
            <mxPoint x="700" y="240" as="targetPoint" />
          </mxGeometry>
        </mxCell>
        <mxCell id="1wq-5R0mncPX6H5CA1t6-38" value="" style="edgeStyle=segmentEdgeStyle;endArrow=classic;html=1;curved=0;rounded=0;endSize=8;startSize=8;entryX=0.5;entryY=0;entryDx=0;entryDy=0;" edge="1" parent="1" target="1wq-5R0mncPX6H5CA1t6-8">
          <mxGeometry width="50" height="50" relative="1" as="geometry">
            <mxPoint x="280" y="240" as="sourcePoint" />
            <mxPoint x="590" y="370" as="targetPoint" />
          </mxGeometry>
        </mxCell>
        <mxCell id="1wq-5R0mncPX6H5CA1t6-39" value="&lt;font style=&quot;font-size: 8px;&quot;&gt;INVALID&lt;/font&gt;" style="text;html=1;strokeColor=none;fillColor=none;align=center;verticalAlign=middle;whiteSpace=wrap;rounded=0;" vertex="1" parent="1">
          <mxGeometry x="470" y="210" width="60" height="30" as="geometry" />
        </mxCell>
        <mxCell id="1wq-5R0mncPX6H5CA1t6-42" value="AUTHORISE" style="shape=rect;rounded=1;html=1;whiteSpace=wrap;align=center;" vertex="1" parent="1">
          <mxGeometry x="760" y="320" width="100" height="40" as="geometry" />
        </mxCell>
        <mxCell id="1wq-5R0mncPX6H5CA1t6-43" value="&lt;font style=&quot;font-size: 8px;&quot;&gt;VALID&lt;/font&gt;" style="text;html=1;strokeColor=none;fillColor=none;align=center;verticalAlign=middle;whiteSpace=wrap;rounded=0;" vertex="1" parent="1">
          <mxGeometry x="710" y="310" width="60" height="30" as="geometry" />
        </mxCell>
        <mxCell id="1wq-5R0mncPX6H5CA1t6-47" value="" style="edgeStyle=orthogonalEdgeStyle;rounded=0;orthogonalLoop=1;jettySize=auto;html=1;" edge="1" parent="1" source="1wq-5R0mncPX6H5CA1t6-44" target="1wq-5R0mncPX6H5CA1t6-46">
          <mxGeometry relative="1" as="geometry" />
        </mxCell>
        <mxCell id="1wq-5R0mncPX6H5CA1t6-44" value="capture data" style="shape=rect;html=1;whiteSpace=wrap;align=center;" vertex="1" parent="1">
          <mxGeometry x="225" y="510" width="110" height="40" as="geometry" />
        </mxCell>
        <mxCell id="1wq-5R0mncPX6H5CA1t6-49" value="" style="edgeStyle=orthogonalEdgeStyle;rounded=0;orthogonalLoop=1;jettySize=auto;html=1;" edge="1" parent="1" source="1wq-5R0mncPX6H5CA1t6-46" target="1wq-5R0mncPX6H5CA1t6-48">
          <mxGeometry relative="1" as="geometry" />
        </mxCell>
        <mxCell id="1wq-5R0mncPX6H5CA1t6-46" value="CREATE_ACCOUNT" style="shape=rect;rounded=1;html=1;whiteSpace=wrap;align=center;" vertex="1" parent="1">
          <mxGeometry x="220" y="590" width="120" height="40" as="geometry" />
        </mxCell>
        <mxCell id="1wq-5R0mncPX6H5CA1t6-48" value="save in database" style="shape=rect;html=1;whiteSpace=wrap;align=center;" vertex="1" parent="1">
          <mxGeometry x="225" y="670" width="110" height="40" as="geometry" />
        </mxCell>
        <mxCell id="1wq-5R0mncPX6H5CA1t6-50" value="" style="endArrow=none;html=1;rounded=0;exitX=0.5;exitY=1;exitDx=0;exitDy=0;" edge="1" parent="1" source="1wq-5R0mncPX6H5CA1t6-48">
          <mxGeometry width="50" height="50" relative="1" as="geometry">
            <mxPoint x="710" y="330" as="sourcePoint" />
            <mxPoint x="280" y="760" as="targetPoint" />
          </mxGeometry>
        </mxCell>
        <mxCell id="1wq-5R0mncPX6H5CA1t6-51" value="" style="endArrow=none;html=1;rounded=0;" edge="1" parent="1">
          <mxGeometry width="50" height="50" relative="1" as="geometry">
            <mxPoint x="420" y="760" as="sourcePoint" />
            <mxPoint x="280" y="760" as="targetPoint" />
          </mxGeometry>
        </mxCell>
        <mxCell id="1wq-5R0mncPX6H5CA1t6-52" value="" style="edgeStyle=segmentEdgeStyle;endArrow=classic;html=1;curved=0;rounded=0;endSize=8;startSize=8;entryX=0.5;entryY=1;entryDx=0;entryDy=0;" edge="1" parent="1" target="1wq-5R0mncPX6H5CA1t6-13">
          <mxGeometry width="50" height="50" relative="1" as="geometry">
            <mxPoint x="420" y="760" as="sourcePoint" />
            <mxPoint x="290" y="330" as="targetPoint" />
          </mxGeometry>
        </mxCell>
      </root>
    </mxGraphModel>
  </diagram>
</mxfile>
